<svg xmlns="http://www.w3.org/2000/svg" xml:space="preserve" width="36" height="36" viewBox="0 0 256 256"><g style="stroke: none; stroke-width: 0; stroke-dasharray: none; stroke-linecap: butt; stroke-linejoin: miter; stroke-miterlimit: 10; fill: none; fill-rule: nonzero; opacity: 1;"><path d="M2.57 30h84.859C81.254 12.534 64.611.015 45.033 0h-.068C25.388.015 8.745 12.534 2.57 30" transform="translate(1.407 1.407)scale(2.81)" style="stroke: none; stroke-width: 1; stroke-dasharray: none; stroke-linecap: butt; stroke-linejoin: miter; stroke-miterlimit: 10; fill: rgb(0, 0, 0); fill-rule: nonzero; opacity: 1;"></path><path d="M87.429 60H2.57C8.749 77.476 25.408 90 45 90s36.25-12.524 42.429-30" transform="translate(1.407 1.407)scale(2.81)" style="stroke: none; stroke-width: 1; stroke-dasharray: none; stroke-linecap: butt; stroke-linejoin: miter; stroke-miterlimit: 10; fill: rgb(255, 206, 0); fill-rule: nonzero; opacity: 1;"></path><path d="M87.429 60A44.9 44.9 0 0 0 90 45c0-5.261-.911-10.307-2.571-15H2.57A44.9 44.9 0 0 0 0 45c0 5.261.912 10.307 2.571 15z" transform="translate(1.407 1.407)scale(2.81)" style="stroke: none; stroke-width: 1; stroke-dasharray: none; stroke-linecap: butt; stroke-linejoin: miter; stroke-miterlimit: 10; fill: rgb(221, 0, 0); fill-rule: nonzero; opacity: 1;"></path></g></svg>