<svg enable-background="new 0 0 478.7 67.5" viewBox="0 0 478.7 67.5" xmlns="http://www.w3.org/2000/svg"><path d="m54.5 34.7-30.3 17.5v13.9c8.6 2.5 18.1 1.7 26.5-3.1s13.9-12.7 15.9-21.4z" fill="#398ccb"/><path d="m24.2 15.3 42.7 24.7c2.6-13.7-3.5-28.1-16.3-35.5-8.4-4.8-17.9-5.7-26.5-3.1v13.9z" fill="#242f62"/><path d="m22.6 1.9c-13.2 4.6-22.6 17.1-22.6 31.9v33.8h22.6z" fill="#0058a5"/><g fill="#242f62"><path d="m120.5 29.1c0 8-5.2 12.9-13.6 12.9h-7.3v9.6h-9.4v-35.5h16.7c8.5 0 13.6 5 13.6 13m-9.3 0c0-2.8-1.8-4.6-4.7-4.6h-7.1v9.1h7.1c3 .1 4.7-1.7 4.7-4.5"/><path d="m148.4 26.6v25.1h-7.8l-.5-2.9c-2.1 2.3-4.7 3.5-7.8 3.5-6.7 0-11.4-5.4-11.4-13.1s4.7-13.1 11.4-13.1c3.2 0 5.7 1.1 7.8 3.4l.5-2.9zm-8.9 12.5c0-3.2-2-5.4-4.9-5.4s-4.9 2.2-4.9 5.4 2 5.4 4.9 5.4c3 .1 4.9-2.1 4.9-5.4"/><path d="m173.4 28.7-3.6 6.5c-1.4-.9-2.4-1.2-3.6-1.2-2.8 0-4.7 1.6-4.7 5.5v12.2h-9v-25.1h7.9l.6 3c1.6-2.6 3.9-3.6 6.2-3.6 2 0 4.5.8 6.2 2.7"/><path d="m198.8 41.7h-17.1c.5 1.9 2.5 3.4 5.6 3.4 2.2 0 4.4-.6 6.3-1.9l4.4 5.1c-3 2.6-6.9 4-11.2 4-8.8 0-14.2-4.9-14.2-13 0-7.9 5.4-13.2 13.4-13.2 9.3-.1 14.6 6.4 12.8 15.6m-17.1-4.6h8.9c0-2.5-1.6-4-4.3-4s-4.5 1.5-4.6 4"/><path d="m227.4 37.3v14.4h-9v-13.9c0-2.6-1.3-4.2-3.5-4.2-2.5 0-4.1 1.9-4.1 4.8v13.2h-9v-25h7.8l.5 2.9c1.8-2.2 4.5-3.5 7.7-3.5 5.8 0 9.6 4.1 9.6 11.3"/><path d="m249.4 50.6c-2.2 1.2-4.5 1.7-7.1 1.7-4.9 0-9-2.3-9-10.2v-8.3h-3.9v-7.2h3.9v-6l8.9-1v7.1h5.6v7.2h-5.6v8.3c0 1.8 1.1 2.4 2.5 2.4.9 0 1.9-.3 2.6-.7z"/><path d="m282.4 29.1c0 8-5.2 12.9-13.6 12.9h-7.3v9.6h-9.4v-35.5h16.7c8.5 0 13.6 5 13.6 13m-9.3 0c0-2.8-1.8-4.6-4.7-4.6h-7.1v9.1h7.1c3 .1 4.7-1.7 4.7-4.5"/><path d="m310.3 26.6v25.1h-7.8l-.5-2.9c-2.1 2.3-4.7 3.5-7.8 3.5-6.7 0-11.4-5.4-11.4-13.1s4.7-13.1 11.4-13.1c3.2 0 5.7 1.1 7.8 3.4l.5-2.9zm-8.9 12.5c0-3.2-2-5.4-4.9-5.4s-4.9 2.2-4.9 5.4 2 5.4 4.9 5.4c3 .1 4.9-2.1 4.9-5.4"/><path d="m340.8 26.6-15.1 35.5h-9.5l4.7-11-9.4-24.5h9.6l2.1 6 2.7 8.6 2.8-8.6 2.4-6z"/><path d="m373 32.5v14.1c-3.7 3.9-8.2 5.7-13.5 5.7-10.6 0-17.7-7.4-17.7-18.4 0-10.9 7.3-18.4 17.9-18.4 4.8 0 9.2 1.9 12.6 5.4l-2.5 2.6c-2.7-2.7-6.4-4.3-10.1-4.3-8.4 0-14.1 6-14.1 14.7 0 8.8 5.6 14.7 13.9 14.7 3.8 0 7.1-1.3 9.9-3.7v-8.9h-11v-3.6h14.6z"/><path d="m395 28-1.7 3.1c-1.3-.9-2.6-1.2-4.1-1.2-4.4 0-7.4 3.8-7.4 9.2v12.5h-3.6v-25h3.3l.1 4.8c1.8-3.4 4.5-5.2 7.9-5.2 2 0 4.1.7 5.5 1.8"/><path d="m395 39.1c0-7.5 5.1-13.1 12.7-13.1s12.7 5.6 12.7 13.1-5.1 13.1-12.7 13.1-12.7-5.6-12.7-13.1m21.7 0c0-5.3-3.6-9.5-9-9.5s-9.1 4.2-9.1 9.5 3.6 9.5 9.1 9.5c5.4.1 9-4.1 9-9.5"/><path d="m447.1 26.6v25.1h-3.3v-4.1c-2 2.8-5.2 4.5-8.9 4.5-6.3 0-10.3-4.3-10.3-11.4v-14.1h3.6v13.9c0 5.2 2.6 8.1 7.1 8.1 4.8 0 8.1-3.7 8.1-8.5v-13.5z"/><path d="m478.7 39.1c0 7.7-5 13.1-12.2 13.1-4 0-7.4-1.7-9.4-4.4v15.8h-3.6v-37h3.3l.1 4.4c1.8-3 5.4-4.9 9.7-4.9 7 0 12.1 5.4 12.1 13m-3.7 0c0-5.7-3.7-9.5-9-9.5-5.2 0-9 3.9-9 9.5s3.7 9.5 9 9.5c5.3.1 9-3.8 9-9.5"/></g></svg>