<svg xmlns="http://www.w3.org/2000/svg" xml:space="preserve" width="36" height="36" viewBox="0 0 256 256"><g style="stroke: none; stroke-width: 0; stroke-dasharray: none; stroke-linecap: butt; stroke-linejoin: miter; stroke-miterlimit: 10; fill: none; fill-rule: nonzero; opacity: 1;"><path d="M87.429 30C81.254 12.534 64.611.015 45.034 0h-.068C25.389.015 8.745 12.534 2.571 30A44.9 44.9 0 0 0 0 45a44.9 44.9 0 0 0 2.571 15C8.75 77.476 25.408 90 45 90s36.25-12.524 42.429-30A44.9 44.9 0 0 0 90 45c0-5.261-.911-10.307-2.571-15" transform="translate(1.407 1.407)scale(2.81)" style="stroke: none; stroke-width: 1; stroke-dasharray: none; stroke-linecap: butt; stroke-linejoin: miter; stroke-miterlimit: 10; fill: rgb(243, 25, 48); fill-rule: nonzero; opacity: 1;"></path><path d="M42.102 62.332c-9.739 0-17.634-7.76-17.634-17.333s7.895-17.333 17.634-17.333c5.241 0 9.934 2.26 13.164 5.828-3.899-6.102-10.803-10.161-18.675-10.161-12.174 0-22.042 9.7-22.042 21.667s9.868 21.667 22.042 21.667c7.875 0 14.781-4.062 18.679-10.168a17.7 17.7 0 0 1-13.168 5.833M62.926 34.878l-.178 8.009-7.472 2.029 7.366 2.623-.178 7.345 4.804-5.736 7.259 2.518-4.199-6.155 5.124-6.121-7.864 2.168z" transform="translate(1.407 1.407)scale(2.81)" style="stroke: none; stroke-width: 1; stroke-dasharray: none; stroke-linecap: butt; stroke-linejoin: miter; stroke-miterlimit: 10; fill: rgb(243, 244, 245); fill-rule: nonzero; opacity: 1;"></path></g></svg>